
<svg xmlns="http://www.w3.org/2000/svg" width="40" height="40" viewBox="0 0 40 40" ><path fill-rule="evenodd" d="M8.254 7.094c-.232.066-.61.339-.838.605L7 8.182v6.965c0 7.63.022 7.902.81 9.987.776 2.052 2.46 4.268 4.228 5.56 1.099.802 2.831 1.624 4.214 1.998.992.269 1.47.308 3.688.308 1.95 0 2.759-.055 3.45-.233 4.672-1.2 8.056-4.565 9.256-9.2.267-1.031.286-1.498.333-8.036.046-6.359.03-6.983-.182-7.44-.303-.653-.897-1.012-1.673-1.013-.544 0-.775.113-2.01.982l-2.367 1.663-.969.68-.975-.287c-1.705-.503-2.062-.576-3.477-.715-1.71-.167-3.649.012-5.38.495-.68.19-1.366.379-1.525.42-.216.054-.833-.31-2.414-1.425-2.773-1.955-2.935-2.033-3.753-1.797Zm2.953 3.702c1.189.841 2.33 1.594 2.534 1.673.302.118.562.076 1.407-.227 3.17-1.135 6.084-1.186 9.127-.158.762.257 1.518.467 1.68.467.162 0 1.332-.739 2.6-1.642 1.268-.903 2.34-1.642 2.383-1.642.043 0 .056 2.971.029 6.603-.055 7.381-.042 7.266-1.05 9.34-1.02 2.1-2.554 3.665-4.614 4.709-1.79.906-2.456 1.035-5.363 1.036-2.299.001-2.647-.03-3.554-.32-3.57-1.137-6.186-3.887-7.179-7.547-.213-.783-.248-1.661-.296-7.355-.03-3.556-.012-6.466.04-6.466.05 0 1.066.688 2.255 1.53Zm2.27 8.044c-.658.41-.903.894-.908 1.796-.003.588.066.885.272 1.168.904 1.236 2.162 1.237 3.065.003.362-.495.382-1.787.035-2.327-.331-.516-1.006-.907-1.566-.907-.258 0-.662.12-.898.267Zm11.067-.067c-.547.315-.947 1.082-.958 1.837-.032 2.152 2.5 2.924 3.396 1.035.45-.95.279-1.961-.45-2.648-.437-.41-1.463-.526-1.988-.224Zm-6.1 4.26c-1.492.751.654 2.746 2.277 2.117.18-.07.546-.323.813-.562.647-.58.665-1.118.048-1.501-.561-.35-2.485-.382-3.138-.053Z" clip-rule="evenodd"/></svg>