<svg xmlns="http://www.w3.org/2000/svg" width="40" height="40" viewBox="0 0 40 40" ><path fill-rule="evenodd" d="M14.292 4.087c-7.226 1.027-12.61 7.74-12.277 15.31.08 1.827.376 2.721 1.282 3.88.803 1.026 1.806 1.67 3.24 2.083 1.11.32 1.117.324 1.258.884.565 2.254 1.493 3.985 3.072 5.73 2.568 2.84 6.083 4.245 10.002 3.998 3.142-.198 5.646-1.3 7.854-3.456 1.834-1.791 2.986-3.801 3.605-6.29.141-.57.16-.586 1.035-.815 2.303-.604 3.89-2.155 4.45-4.352.102-.4.186-1.41.187-2.25.007-7.017-4.47-12.832-11.195-14.54-.71-.181-1.907-.231-6.273-.263-2.968-.021-5.776.015-6.24.08ZM26.737 6.38c2.33.695 4.016 1.698 5.6 3.331 2.47 2.547 3.641 5.5 3.641 9.182 0 1.432-.036 1.672-.346 2.322a4 4 0 0 1-1.871 1.878c-1.082.513-1.005.832-1.05-4.362-.035-4.322-.055-4.649-.295-4.925-.304-.35-.966-.386-1.362-.075-.26.205-.273.428-.348 5.73-.073 5.172-.097 5.582-.38 6.568-.545 1.901-1.278 3.162-2.706 4.66-1.104 1.156-1.47 1.442-2.57 2.004-1.891.968-2.675 1.149-4.99 1.149-2.242 0-3.069-.18-4.79-1.036-2.86-1.425-4.963-4.232-5.601-7.477-.232-1.175-.264-1.934-.265-6.27-.002-4.769-.011-4.943-.277-5.24-.341-.383-.936-.4-1.363-.04l-.318.269-.034 4.69-.033 4.692-.304-.044c-.609-.087-1.725-.761-2.181-1.318-.668-.814-.888-1.609-.888-3.21 0-2.207.394-3.92 1.359-5.91C7.028 9.517 10.248 7 13.921 6.26c.719-.145 2.269-.182 6.476-.156 4.757.03 5.644.068 6.34.276ZM13.48 17.536c-1.612.855-1.484 3.565.195 4.143 1.595.549 3.055-1.561 2.237-3.234-.473-.967-1.56-1.373-2.432-.91Zm11.582.012c-.762.417-1.022.914-1.02 1.946.002.68.07.99.279 1.282.707.989 1.701 1.282 2.472.731.72-.515.987-.983.996-1.756.011-.871-.345-1.652-.925-2.026-.648-.418-1.253-.477-1.802-.177Zm-6.75 8.228c-.818.244-1.22.636-1.22 1.188 0 1.364 1.372 2.487 3.008 2.463 1.485-.022 2.793-1.127 2.793-2.36 0-.69-.262-.975-1.155-1.255-.726-.228-2.716-.249-3.426-.036Z" clip-rule="evenodd"/></svg>